<?xml version="1.0" encoding="UTF-8"?> <svg xmlns="http://www.w3.org/2000/svg" id="logo_w" width="330.65" height="40" viewBox="0 0 330.65 40"><g id="Лого"><path id="Контур_623" data-name="Контур 623" d="M51.469,24.613,48.94,40H59.484L66.037,0H55.494L52.965,15.352H14.6L17.1,0H6.554L0,40H10.543l2.529-15.387Z" fill="#fff"></path><path id="Контур_624" data-name="Контур 624" d="M89.793,0H27.1L25.43,9.51H50.577L45.555,40H56.1L61.12,9.51H88.155Z" transform="translate(65.149)" fill="#fff"></path><path id="Контур_625" data-name="Контур 625" d="M47.019,40H98.595l1.674-9.475H55.46L56.6,23.58l39.537.071,1.5-8.406-39.679-.036.962-5.7h45.307L105.9,0H49.939L43.35,40Z" transform="translate(111.058)" fill="#fff"></path><path id="Контур_626" data-name="Контур 626" d="M32.972,0H22.428L20.79,10.08H31.333Z" transform="translate(53.262)" fill="#fff"></path><path id="Контур_627" data-name="Контур 627" d="M34.049,4.25H23.471L19.41,29.112H29.953Z" transform="translate(49.726 10.888)" fill="#fff"></path><path id="Контур_628" data-name="Контур 628" d="M86.31,4.346a3.562,3.562,0,0,0-1.6.926,5.165,5.165,0,0,0-1.033,1.745A13.176,13.176,0,0,0,83,9.688l-1,5.45H92.294a8.478,8.478,0,0,0,2.244-.249,3.562,3.562,0,0,0,1.71-.89,5.023,5.023,0,0,0,1.069-1.71,12.966,12.966,0,0,0,.677-2.707l.926-5.521H88.59a8.263,8.263,0,0,0-2.28.285Z" transform="translate(210.075 10.401)" fill="#fff"></path><path id="Контур_629" data-name="Контур 629" d="M68.14,0,61.55,40h104.9l6.518-40ZM93.429,22.4H84.275l.819-4.595H95.21a3.134,3.134,0,0,0,2.208-.819,5.129,5.129,0,0,0,1.353-2.529H83.634L80.962,30.525H76.581l3.562-20.98h23.544l-.677,4.025A9.118,9.118,0,0,1,93.429,22.4Zm33.161,8.121h-5.2L115.9,22.4h-5.378l.784-4.595h10.08a3.206,3.206,0,0,0,2.315-.962,5.485,5.485,0,0,0,1.353-2.386H109.849l-2.707,16.064h-4.31l3.562-20.98h23.58l-.677,4.025a9.083,9.083,0,0,1-8.014,8.727Zm28.032-10.436A17.1,17.1,0,0,1,153.3,24.47a11.682,11.682,0,0,1-2.28,3.277,9.617,9.617,0,0,1-3.134,2.066,10.686,10.686,0,0,1-3.882.712H129.3l1.781-10.686a17.81,17.81,0,0,1,1.318-4.346,12.326,12.326,0,0,1,2.315-3.277,10.187,10.187,0,0,1,3.241-1.923,9.76,9.76,0,0,1,3.847-.748H156.51Z" transform="translate(157.684)" fill="#fff"></path></g></svg> 